<svg version="1.1" xmlns="http://www.w3.org/2000/svg" viewBox="-265.215998840332 -1035.2640258789063 4000.7681640625 1352.7040161132813"><desc>Created with Snap</desc><defs></defs><g><g><g transform="matrix(1.024,0,0,-1.024,0,0)"><path d="M390 10Q439 10 452 28Q466 46 466 89L466 283L402 283L402 305L690 305L690 283L651 283L651 1L636 1Q618 26 585 26Q571 26 501 8Q432 -10 383 -10Q220 -10 130 78Q41 166 41 342Q41 519 134 615Q228 711 386 711Q447 711 508 695Q570 680 580 680Q590 680 595 684Q600 689 606 700L617 700L625 483L607 483Q558 580 508 635Q459 691 398 691Q245 691 245 392L245 313Q245 163 282 86Q320 10 390 10ZM1048 11Q1098 11 1136 38Q1175 65 1175 119Q1175 174 1133 203Q1092 232 1015 253Q939 275 904 291Q870 307 839 333Q777 385 777 494Q777 583 840 647Q904 711 1014 711Q1067 711 1124 695Q1182 680 1196 680Q1210 680 1221 700L1232 700L1239 498L1223 498Q1175 585 1122 637Q1070 690 1008 690Q947 690 913 661Q879 633 879 585Q879 538 919 512Q960 487 1019 471Q1078 455 1096 449Q1115 443 1142 432Q1170 422 1187 410Q1205 399 1224 381Q1244 364 1255 343Q1282 295 1282 229Q1282 121 1214 55Q1147 -10 1037 -10Q980 -10 906 5Q833 20 825 20Q811 20 798 -10L784 -10L774 228L791 228Q835 141 903 76Q972 11 1048 11ZM1613 468Q1569 468 1550 420Q1531 372 1531 261L1531 209Q1531 110 1553 67Q1575 24 1634 24Q1693 24 1728 64Q1763 104 1773 155L1791 153Q1772 67 1721 29Q1669 -10 1578 -10Q1462 -10 1400 52Q1338 115 1338 235Q1338 356 1408 421Q1479 486 1605 486Q1694 486 1741 451Q1788 417 1788 365Q1788 313 1765 289Q1743 265 1703 265Q1664 265 1640 286Q1616 307 1616 348Q1616 366 1621 384L1654 384Q1661 404 1661 420Q1661 468 1613 468ZM2139 197L2139 282Q2139 379 2128 423Q2118 468 2080 468Q2058 468 2044 455Q2031 443 2025 414Q2016 369 2016 277L2016 199Q2016 90 2022 68Q2029 46 2036 32Q2047 8 2079 8Q2118 8 2130 53Q2139 85 2139 197ZM2077 -10Q1952 -10 1888 54Q1824 118 1824 237Q1824 357 1892 421Q1961 486 2085 486Q2209 486 2270 426Q2331 367 2331 245Q2331 -10 2077 -10ZM2944 18L2944 0L2716 0L2705 73Q2689 33 2657 11Q2626 -10 2564 -10Q2409 -10 2409 157L2409 458L2353 458L2353 476L2595 476L2595 133Q2595 73 2603 54Q2612 35 2637 35Q2663 35 2683 66Q2703 97 2703 152L2703 458L2657 458L2657 476L2889 476L2889 18L2944 18ZM3014 143L3014 458L2959 458L2959 476L3014 476L3014 605L3200 651L3200 476L3330 476L3330 458L3200 458L3200 121Q3200 74 3209 52Q3219 30 3249 30Q3279 30 3301 60Q3324 90 3331 142L3348 140Q3340 71 3304 30Q3268 -10 3185 -10Q3102 -10 3058 23Q3014 56 3014 143Z" fill="#000000" style=""></path></g></g></g></svg>